<svg width="30" height="30" viewBox="0 0 30 30" fill="none" xmlns="http://www.w3.org/2000/svg">
<g clip-path="url(#clip0_115_2120)">
<path d="M30 15C30 23.2837 23.2837 30 15 30C6.71631 30 0 23.2837 0 15C0 6.71631 6.71631 0 15 0C23.2837 0 30 6.71631 30 15Z" fill="#131419"/>
<path d="M14.9998 4.50073L17.6017 7.15576L11.0502 13.6871L8.44824 11.0944L14.9998 4.50073Z" fill="#F0B90B"/>
<path d="M18.9493 8.4375L21.5513 11.0944L11.0502 21.5625L8.44824 18.9679L18.9493 8.4375Z" fill="#F0B90B"/>
<path d="M7.10059 12.3743L9.70252 15.0311L7.10059 17.6257L4.50049 15.0311L7.10059 12.3743Z" fill="#F0B90B"/>
<path d="M22.899 12.3743L25.501 15.0311L14.9999 25.4993L12.3979 22.9065L22.899 12.3743Z" fill="#F0B90B"/>
</g>
<defs>
<clipPath id="clip0_115_2120">
<rect width="30" height="30" fill="white"/>
</clipPath>
</defs>
</svg>
