<svg width="30" height="30" viewBox="0 0 30 30" fill="none" xmlns="http://www.w3.org/2000/svg">
<g clip-path="url(#clip0_118_81)">
<path fill-rule="evenodd" clip-rule="evenodd" d="M15 0C23.2855 0 30 6.71448 30 15C30 23.2855 23.2855 30 15 30C6.71448 30 0 23.2855 0 15C0 6.71448 6.71448 0 15 0Z" fill="#F0B90B"/>
<path d="M8.24365 15L8.25464 18.9661L11.6256 20.9491V23.2709L6.28259 20.1379V13.8409L8.24365 15ZM8.24365 11.0339V13.3447L6.28076 12.1838V9.87305L8.24365 8.71216L10.2157 9.87305L8.24365 11.0339ZM13.0319 9.87305L14.9948 8.71216L16.9686 9.87305L14.9948 11.0339L13.0319 9.87305Z" fill="white"/>
<path d="M9.6626 18.1439V15.8221L11.6255 16.983V19.2938L9.6626 18.1439ZM13.0317 21.7804L14.9946 22.9431L16.9685 21.7804V24.093L14.9946 25.2539L13.0317 24.093V21.7804ZM19.7828 9.87305L21.7457 8.71216L23.7178 9.87305V12.1838L21.7457 13.3447V11.0339L19.7828 9.87305ZM21.7457 18.9661L21.7567 15L23.7196 13.8391V20.1361L18.3766 23.2709V20.9491L21.7457 18.9661Z" fill="white"/>
<path d="M20.3374 18.1439L18.3745 19.2938V16.983L20.3374 15.8221V18.1439Z" fill="white"/>
<path d="M20.3376 11.8561L20.3486 14.1779L16.9685 16.1609V20.1361L15.0056 21.2878L13.0427 20.1361V16.1609L9.66443 14.1779V11.8561L11.6346 10.6952L14.9946 12.6874L18.3748 10.6952L20.3468 11.8561H20.3376ZM9.6626 7.89001L14.9946 4.74609L20.3376 7.89001L18.3748 9.0509L14.9946 7.05872L11.6255 9.0509L9.6626 7.89001Z" fill="white"/>
</g>
<defs>
<clipPath id="clip0_118_81">
<rect width="30" height="30" fill="white"/>
</clipPath>
</defs>
</svg>
