<svg width="37" height="37" viewBox="0 0 37 37" fill="none" xmlns="http://www.w3.org/2000/svg">
<g clip-path="url(#clip0_115_1616)">
<path d="M33.0956 22.2534C30.9848 30.1311 22.7865 34.7776 14.7851 32.6337C6.78366 30.4897 2.00702 22.3665 4.11783 14.4889C6.22863 6.61125 14.4269 1.96469 22.4283 4.10867C30.4298 6.25264 35.2064 14.3758 33.0956 22.2534Z" fill="#0AC18E"/>
<path d="M24.4091 14.7925C24.1177 12.9723 22.5375 12.1773 20.3993 11.9646L20.4126 9.2763L18.7558 9.25509L18.732 11.933C18.2965 11.9243 17.8536 11.9004 17.4071 11.904L17.4271 9.24029L15.7703 9.21908L15.7553 11.9069C15.3954 11.9128 12.4065 11.8683 12.4065 11.8683L12.3962 13.619C12.3962 13.619 13.6195 13.6094 13.6023 13.6313C14.2791 13.6383 14.4928 14.0292 14.5539 14.3602L14.5183 21.7304C14.4864 21.9342 14.3596 22.2661 13.8937 22.2644C13.9164 22.2857 12.6885 22.2486 12.6885 22.2486L12.3474 24.2007C12.3474 24.2007 15.3061 24.2447 15.6946 24.2521L15.6786 26.9719L17.3372 26.9936L17.3579 24.2561C17.8102 24.2731 18.2534 24.2819 18.6846 24.2856L18.6659 27.0084L20.3227 27.0296L20.3377 24.3134C22.8802 24.3823 24.9674 23.3493 25.2288 20.9872C25.3745 19.559 24.1574 18.031 22.9305 17.5658C23.8862 17.0977 24.5455 16.2147 24.4091 14.7925ZM22.0571 20.5847C21.7643 22.9156 18.5179 22.3396 17.3961 22.3309L17.3848 18.7224C18.5097 18.7337 22.0662 18.464 22.0571 20.5847ZM21.3726 15.4916C21.1643 17.5778 18.3891 17.0826 17.4544 17.0691L17.4406 13.7954C18.377 13.8169 21.2029 13.4651 21.3726 15.4916Z" fill="white"/>
</g>
<defs>
<clipPath id="clip0_115_1616">
<rect width="30" height="30" fill="white" transform="translate(8) rotate(15)"/>
</clipPath>
</defs>
</svg>
