<svg width="37" height="37" viewBox="0 0 37 37" fill="none" xmlns="http://www.w3.org/2000/svg">
<g clip-path="url(#clip0_115_1608)">
<path d="M33.3642 18.3465C33.5088 26.6258 26.9129 33.4565 18.6318 33.6016C10.3542 33.7457 3.52309 27.148 3.37848 18.8687C3.2334 10.5876 9.82929 3.75693 18.1086 3.61232C26.388 3.46772 33.2191 10.0654 33.3642 18.3465Z" fill="#F7931A"/>
<path d="M24.2066 14.8308C23.9783 12.8257 22.2326 12.1826 20.0399 12.029L19.9908 9.24224L18.2946 9.2721L18.3429 11.9851C17.8976 11.9926 17.4417 12.0105 16.9894 12.0274L16.9417 9.29531L15.2455 9.32517L15.2941 12.1101C14.9284 12.1247 14.5679 12.1379 14.2154 12.1451L14.2148 12.1358L11.8765 12.1747L11.9088 13.9859C11.9088 13.9859 13.1592 13.9409 13.1392 13.9652C13.8261 13.9536 14.057 14.3486 14.1281 14.6916L14.1841 17.8651C14.2312 17.8639 14.2921 17.8646 14.3628 17.8741L14.1852 17.8762L14.2605 22.3241C14.2348 22.5395 14.1136 22.8866 13.6345 22.8956C13.6566 22.9143 12.4006 22.9172 12.4006 22.9172L12.0994 24.9485L14.3071 24.9105C14.7183 24.9027 15.122 24.9026 15.519 24.8986L15.5691 27.7172L17.2617 27.6883L17.2139 24.8994C17.679 24.9017 18.1289 24.8968 18.5684 24.889L18.6165 27.6646L20.3127 27.6348L20.264 24.8214C23.111 24.6083 25.0948 23.8549 25.2958 21.1737C25.4585 19.0146 24.4281 18.0699 22.8018 17.7095C23.7755 17.1908 24.3761 16.2981 24.2066 14.8308ZM21.9387 20.898C21.9759 23.0035 18.3668 22.8275 17.2176 22.8473L17.1517 19.1135C18.3013 19.0955 21.8999 18.7018 21.9387 20.898ZM21.0579 15.6442C21.0897 17.5597 18.0789 17.3883 17.1225 17.4057L17.0624 14.0191C18.0211 14.003 21.0229 13.646 21.0579 15.6442Z" fill="white"/>
</g>
<defs>
<clipPath id="clip0_115_1608">
<rect width="30" height="30" fill="white" transform="translate(0 8) rotate(-15)"/>
</clipPath>
</defs>
</svg>
