<svg width="31" height="30" viewBox="0 0 31 30" fill="none" xmlns="http://www.w3.org/2000/svg">
<g clip-path="url(#clip0_115_1920)">
<path d="M25.5 7.5H22.775C22.9125 7.1125 23 6.6875 23 6.25C23 4.175 21.325 2.5 19.25 2.5C17.9375 2.5 16.8 3.175 16.125 4.1875L15.5 5.025L14.875 4.175C14.2 3.175 13.0625 2.5 11.75 2.5C9.675 2.5 8 4.175 8 6.25C8 6.6875 8.0875 7.1125 8.225 7.5H5.5C4.1125 7.5 3.0125 8.6125 3.0125 10L3 23.75C3 25.1375 4.1125 26.25 5.5 26.25H25.5C26.8875 26.25 28 25.1375 28 23.75V10C28 8.6125 26.8875 7.5 25.5 7.5ZM19.25 5C19.9375 5 20.5 5.5625 20.5 6.25C20.5 6.9375 19.9375 7.5 19.25 7.5C18.5625 7.5 18 6.9375 18 6.25C18 5.5625 18.5625 5 19.25 5ZM11.75 5C12.4375 5 13 5.5625 13 6.25C13 6.9375 12.4375 7.5 11.75 7.5C11.0625 7.5 10.5 6.9375 10.5 6.25C10.5 5.5625 11.0625 5 11.75 5ZM24.25 23.75H6.75C6.0625 23.75 5.5 23.1875 5.5 22.5C5.5 21.8096 6.05964 21.25 6.75 21.25H24.25C24.9404 21.25 25.5 21.8096 25.5 22.5C25.5 23.1875 24.9375 23.75 24.25 23.75ZM25.5 16.5C25.5 17.6046 24.6046 18.5 23.5 18.5H15.5H7.5C6.39543 18.5 5.5 17.6046 5.5 16.5V11.25C5.5 10.5625 6.0625 10 6.75 10H11.85L10 12.525C9.5875 13.0875 9.7125 13.875 10.275 14.275C10.825 14.675 11.6125 14.55 12.0125 14L15.5 9.25L18.9875 14C19.3875 14.55 20.175 14.675 20.725 14.275C21.2875 13.875 21.4125 13.0875 21 12.525L19.15 10H24.25C24.9375 10 25.5 10.5625 25.5 11.25V16.5Z" fill="#6880FF"/>
</g>
<defs>
<clipPath id="clip0_115_1920">
<rect width="30" height="30" fill="white" transform="translate(0.5)"/>
</clipPath>
</defs>
</svg>
