<svg width="32" height="30" viewBox="0 0 32 30" fill="none" xmlns="http://www.w3.org/2000/svg">
<mask id="mask0_115_1991" style="mask-type:luminance" maskUnits="userSpaceOnUse" x="0" y="0" width="30" height="30">
<path d="M0 0H29.9103V30H0V0Z" fill="white"/>
</mask>
<g mask="url(#mask0_115_1991)">
<path d="M14.9561 0C23.2159 0 29.9103 6.71631 29.9103 15C29.9103 23.2855 23.2159 30 14.9561 30C6.69617 30 0 23.2837 0 15C0 6.71631 6.69617 0 14.9561 0Z" fill="#F5AC37"/>
</g>
<path d="M15.5016 16.0529H21.1852C21.306 16.0529 21.3628 16.0529 21.3719 15.8936C21.4177 15.3131 21.4177 14.729 21.3719 14.1486C21.3719 14.0369 21.3152 13.9893 21.1943 13.9893H9.88391C9.74475 13.9893 9.7063 14.0369 9.7063 14.1687V15.8368C9.7063 16.0529 9.7063 16.0529 9.93152 16.0529H15.5016ZM20.7366 12.0392C20.7531 11.9971 20.7531 11.9513 20.7366 11.9092C20.6414 11.7023 20.5297 11.5045 20.3997 11.3177C20.2019 11.001 19.9712 10.708 19.7075 10.4462C19.583 10.2869 19.4384 10.1459 19.2772 10.025C18.4679 9.33472 17.5066 8.84583 16.472 8.59863C15.952 8.48145 15.4174 8.42651 14.8845 8.43018H9.86377C9.72461 8.43018 9.7063 8.48694 9.7063 8.60962V11.9366C9.7063 12.0776 9.7063 12.1143 9.88391 12.1143H20.6688C20.6688 12.1143 20.764 12.0959 20.7823 12.0392H20.7366ZM20.7366 18.0029C20.5773 17.9846 20.418 17.9846 20.2587 18.0029H9.89307C9.75391 18.0029 9.7063 18.0029 9.7063 18.1897V21.4435C9.7063 21.5936 9.7063 21.6321 9.89307 21.6321H14.6794C14.9083 21.6486 15.1372 21.6321 15.3606 21.5845C16.0564 21.535 16.7394 21.3831 17.3894 21.134C17.6274 21.0516 17.8563 20.9454 18.0724 20.8154H18.1365C19.2589 20.2313 20.1708 19.3103 20.7457 18.1824C20.7457 18.1824 20.8098 18.0414 20.7366 18.0029ZM7.82764 23.3185V18.1348C7.82764 18.0121 7.82764 17.9938 7.67932 17.9938H5.65051C5.53882 17.9938 5.49121 17.9938 5.49121 17.8436V16.062H7.65918C7.78186 16.062 7.82764 16.062 7.82764 15.9027V14.1412C7.82764 14.0277 7.82764 14.0002 7.67932 14.0002H5.65051C5.53882 14.0002 5.49121 14.0002 5.49121 13.8501V12.2003C5.49121 12.0978 5.49121 12.0703 5.64136 12.0703H7.65002C7.79102 12.0703 7.82764 12.0703 7.82764 11.8909V6.83899C7.82764 6.68884 7.82764 6.65039 8.0144 6.65039H15.0255C15.5345 6.67053 16.0399 6.72729 16.5398 6.81885C17.5707 7.01111 18.5594 7.37915 19.4658 7.90649C20.0646 8.26172 20.6176 8.69019 21.1101 9.18274C21.48 9.56726 21.8132 9.98474 22.1099 10.4279C22.4047 10.8783 22.6482 11.3599 22.8405 11.8634C22.8643 11.9934 22.9888 12.0831 23.1188 12.0612H24.7924C25.0066 12.0612 25.0066 12.0612 25.0157 12.2662V13.8043C25.0157 13.9545 24.9608 13.9929 24.8107 13.9929H23.5198C23.3898 13.9929 23.3513 13.9929 23.3623 14.1614C23.4136 14.7327 23.4136 15.3058 23.3623 15.8752C23.3623 16.0345 23.3623 16.0547 23.5399 16.0547H25.0157C25.0817 16.1389 25.0157 16.2231 25.0157 16.3074C25.0249 16.4172 25.0249 16.5271 25.0157 16.6351V17.7704C25.0157 17.9297 24.97 17.9773 24.829 17.9773H23.062C22.9393 17.9535 22.8185 18.0322 22.791 18.1549C22.3699 19.2517 21.6979 20.235 20.8281 21.0242C20.5095 21.3098 20.1763 21.5808 19.8284 21.8298C19.453 22.0459 19.0886 22.2711 18.7059 22.4487C17.9991 22.7673 17.2594 23.0017 16.4995 23.1519C15.7781 23.28 15.0475 23.3405 14.3132 23.3295H7.82581V23.3203L7.82764 23.3185Z" fill="#FEFEFD"/>
<path d="M25.4717 15L30.0164 22.5348L25.4882 20.5939L25.4717 15Z" fill="#E68F7B"/>
<path d="M20.938 22.5348L25.4717 15L25.4882 20.5939L20.938 22.5348Z" fill="#F8EC7C"/>
<path d="M25.4717 25.3125L20.938 22.5348L25.4882 20.592L25.4717 25.3125Z" fill="#6EB87D"/>
<path d="M30.0164 22.5348L25.4882 20.592L25.4717 25.3125L30.0164 22.5348Z" fill="#946BA7"/>
<path d="M25.4717 26.2683L30.0164 23.5657L25.4717 29.9908V26.2683Z" fill="#697CB9"/>
<path d="M25.4717 26.2683L20.938 23.5657L25.4717 29.9908V26.2683Z" fill="#4FADD0"/>
</svg>
