<svg width="30" height="30" viewBox="0 0 30 30" fill="none" xmlns="http://www.w3.org/2000/svg">
<g clip-path="url(#clip0_115_2011)">
<path d="M15 0C23.2855 0 30 6.71631 30 15C30 23.2855 23.2855 30 15 30C6.71631 30 0 23.2837 0 15C0 6.71631 6.71631 0 15 0Z" fill="#F5AC37"/>
<path d="M15.5475 16.0529H21.2476C21.3684 16.0529 21.427 16.0529 21.4362 15.8936C21.4819 15.3131 21.4819 14.729 21.4362 14.1486C21.4362 14.0369 21.3794 13.9893 21.2567 13.9893H9.91333C9.77417 13.9893 9.73572 14.0369 9.73572 14.1687V15.8368C9.73572 16.0529 9.73572 16.0529 9.96094 16.0529H15.5475ZM20.799 12.0392C20.8154 11.9971 20.8154 11.9513 20.799 11.9092C20.7037 11.7023 20.5902 11.5045 20.4602 11.3177C20.2625 11.001 20.0317 10.708 19.7662 10.4462C19.6417 10.2869 19.4971 10.1459 19.3341 10.025C18.5229 9.33472 17.5598 8.84583 16.5216 8.59863C15.9998 8.48145 15.4651 8.42651 14.9286 8.43018H9.89502C9.75403 8.43018 9.73572 8.48694 9.73572 8.60962V11.9366C9.73572 12.0776 9.73572 12.1143 9.91333 12.1143H20.7312C20.7312 12.1143 20.8246 12.0959 20.8447 12.0392H20.799ZM20.799 18.0029C20.6396 17.9846 20.4785 17.9846 20.3192 18.0029H9.92249C9.78333 18.0029 9.73572 18.0029 9.73572 18.1897V21.4435C9.73572 21.5936 9.73572 21.6321 9.92249 21.6321H14.7235C14.9524 21.6486 15.1831 21.6321 15.4065 21.5845C16.1041 21.535 16.7889 21.3831 17.4426 21.134C17.6807 21.0516 17.9095 20.9454 18.1256 20.8154H18.1915C19.3158 20.2313 20.2313 19.3103 20.8063 18.1824C20.8063 18.1824 20.8722 18.0414 20.799 18.0029ZM7.85156 23.3185V18.1348C7.85156 18.0121 7.85156 17.9938 7.70142 17.9938H5.66711C5.55542 17.9938 5.50781 17.9938 5.50781 17.8436V16.062H7.68311C7.80396 16.062 7.85156 16.062 7.85156 15.9027V14.1412C7.85156 14.0277 7.85156 14.0002 7.70142 14.0002H5.66711C5.55542 14.0002 5.50781 14.0002 5.50781 13.8501V12.2003C5.50781 12.0978 5.50781 12.0703 5.65796 12.0703H7.67395C7.81311 12.0703 7.85156 12.0703 7.85156 11.8909V6.83899C7.85156 6.68884 7.85156 6.65039 8.04016 6.65039H15.0696C15.5804 6.67053 16.0876 6.72729 16.5894 6.81885C17.6221 7.01111 18.6145 7.37915 19.5227 7.90649C20.1251 8.26172 20.6799 8.69019 21.1725 9.18274C21.5442 9.56726 21.8793 9.98474 22.1759 10.4279C22.4707 10.8783 22.7161 11.3599 22.9083 11.8634C22.9321 11.9934 23.0566 12.0831 23.1885 12.0612H24.8657C25.0818 12.0612 25.0818 12.0612 25.0909 12.2662V13.8043C25.0909 13.9545 25.036 13.9929 24.884 13.9929H23.5913C23.4595 13.9929 23.4229 13.9929 23.432 14.1614C23.4833 14.7327 23.4833 15.3058 23.432 15.8752C23.432 16.0345 23.432 16.0547 23.6096 16.0547H25.0909C25.1569 16.1389 25.0909 16.2231 25.0909 16.3074C25.1001 16.4172 25.1001 16.5271 25.0909 16.6351V17.7704C25.0909 17.9297 25.0433 17.9773 24.9023 17.9773H23.1317C23.0072 17.9535 22.8882 18.0322 22.8589 18.1549C22.4377 19.2517 21.7621 20.235 20.8905 21.0242C20.5719 21.3098 20.2368 21.5808 19.8871 21.8298C19.5117 22.0459 19.1473 22.2711 18.761 22.4487C18.0542 22.7673 17.3108 23.0017 16.5491 23.1519C15.8258 23.28 15.0916 23.3405 14.3555 23.3295H7.84973V23.3203L7.85156 23.3185Z" fill="#FEFEFD"/>
<path d="M30 22.5C30 26.6418 26.6418 30 22.5 30C18.3582 30 15 26.6418 15 22.5C15 18.3582 18.3582 15 22.5 15C26.6418 15 30 18.3582 30 22.5Z" fill="#131419"/>
<path fill-rule="evenodd" clip-rule="evenodd" d="M20.1143 21.5222L22.5001 19.1364L24.886 21.5222L26.2721 20.1361L22.5001 16.3641L18.7281 20.1361L20.1143 21.5222ZM17.7485 21.1176L16.3643 22.5018L17.7485 23.8879L19.1346 22.5018L17.7485 21.1176ZM22.5001 25.8673L20.1143 23.4814L18.7281 24.8676L22.5001 28.6395L26.2721 24.8676L24.886 23.4814L22.5001 25.8673ZM27.2517 21.1176L25.8656 22.5018L27.2517 23.8879L28.636 22.5018L27.2517 21.1176ZM22.5001 21.0956L23.9064 22.5018L22.5001 23.9081L21.0939 22.5018L21.3374 22.2491L21.4637 22.1338L22.5001 21.0956Z" fill="#F0B90B"/>
</g>
<defs>
<clipPath id="clip0_115_2011">
<rect width="30" height="30" fill="white"/>
</clipPath>
</defs>
</svg>
