<svg width="30" height="30" viewBox="0 0 30 30" fill="none" xmlns="http://www.w3.org/2000/svg">
<g clip-path="url(#clip0_115_2189)">
<path d="M30 15C30 23.2837 23.2837 30 15 30C6.71631 30 0 23.2837 0 15C0 6.71631 6.71631 0 15 0C23.2837 0 30 6.71631 30 15Z" fill="#2573C2"/>
<path d="M24.7891 11.0522C24.7689 10.7153 24.67 10.3894 24.5016 10.0983C24.3514 9.79797 24.0841 9.56359 23.7728 9.44457C23.4542 9.28527 23.1008 9.20837 22.7456 9.21935H9.43201L8.47803 12.0776H20.541L18.6367 17.9224H6.57556L5.62158 20.7806H18.9993C19.3984 20.7696 19.7921 20.6927 20.1656 20.5554C20.541 20.343 20.9695 20.1269 21.3339 19.8267C21.6873 19.5483 22.0077 19.2279 22.2878 18.8727C22.5186 18.5266 22.7145 18.1567 22.8756 17.7722L24.6426 12.2168C24.8037 11.8506 24.855 11.4459 24.7891 11.0522Z" fill="white"/>
<path d="M13.2333 13.6743H6.13611L5.18213 16.3165H12.3507L13.2333 13.6743Z" fill="white"/>
</g>
<defs>
<clipPath id="clip0_115_2189">
<rect width="30" height="30" fill="white"/>
</clipPath>
</defs>
</svg>
