<svg width="30" height="30" viewBox="0 0 30 30" fill="none" xmlns="http://www.w3.org/2000/svg">
<g clip-path="url(#clip0_115_1965)">
<path d="M15.361 9.88586H13.2168V14.1101H16.5896V15.8789H13.2168V20.105H15.4653C16.0421 20.105 20.2078 20.1691 20.2004 15.1886C20.1949 10.2081 16.1611 9.88586 15.361 9.88586Z" fill="#C2A633"/>
<path d="M15 0C6.71631 0 0 6.71631 0 15C0 23.2837 6.71631 30 15 30C23.2837 30 30 23.2837 30 15C30 6.71631 23.2837 0 15 0ZM15.5896 23.1006H10.1569V15.8789H8.24158V14.1101H10.1569V6.88843H14.8187C15.9229 6.88843 23.2269 6.65955 23.2269 15.13C23.2269 23.7415 15.5896 23.1006 15.5896 23.1006Z" fill="#C2A633"/>
</g>
<defs>
<clipPath id="clip0_115_1965">
<rect width="30" height="30" fill="white"/>
</clipPath>
</defs>
</svg>
