<svg width="30" height="30" viewBox="0 0 30 30" fill="none" xmlns="http://www.w3.org/2000/svg">
<g clip-path="url(#clip0_115_1253)">
<path d="M19.3471 4C13.415 4 8.69629 8.71835 8.69629 14.5C8.69629 20.3481 13.4825 25 19.3471 25C25.2119 25 29.998 20.2816 29.998 14.5C29.998 8.71835 25.2119 4 19.3471 4ZM19.3471 18.4209C17.19 18.4209 15.37 16.6266 15.37 14.5C15.37 12.3734 17.19 10.5791 19.3471 10.5791C21.5043 10.5791 23.3244 12.3734 23.3244 14.5C23.2571 16.6266 21.5043 18.4209 19.3471 18.4209Z" fill="#9672E0"/>
<path d="M8.62857 7.05695V22.3417H4.85357L0 7.05695H8.62857Z" fill="#9672E0"/>
</g>
<defs>
<clipPath id="clip0_115_1253">
<rect width="30" height="21" fill="white" transform="translate(0 4)"/>
</clipPath>
</defs>
</svg>
