<svg width="16" height="16" viewBox="0 0 16 16" fill="none" xmlns="http://www.w3.org/2000/svg">
<path d="M14.5684 6.24002C15.2086 6.06849 15.5966 5.40524 15.3313 4.7979C14.8628 3.72512 14.1623 2.76355 13.2749 1.98528C12.0853 0.942025 10.613 0.27496 9.04432 0.068435C7.4756 -0.13809 5.88088 0.1252 4.4618 0.825012C3.04272 1.52482 1.86303 2.62972 1.0719 3.99999C0.280779 5.37026 -0.0862481 6.94436 0.017236 8.52322C0.12072 10.1021 0.690068 11.6148 1.65328 12.8701C2.61649 14.1254 3.93031 15.0668 5.42859 15.5754C6.54633 15.9549 7.72928 16.0807 8.89262 15.9501C9.55122 15.8761 9.93161 15.2084 9.76008 14.5683V14.5683C9.58855 13.9281 8.92806 13.5622 8.26606 13.5937C7.56875 13.6268 6.86777 13.5295 6.20005 13.3028C5.15125 12.9468 4.23158 12.2878 3.55733 11.4091C2.88308 10.5304 2.48454 9.47146 2.4121 8.36625C2.33966 7.26105 2.59658 6.15918 3.15037 5.19999C3.70415 4.24081 4.52994 3.46737 5.52329 2.97751C6.51664 2.48764 7.63295 2.30334 8.73105 2.4479C9.82915 2.59247 10.8597 3.05942 11.6924 3.78969C12.2226 4.25463 12.6574 4.81301 12.9774 5.43348C13.2811 6.02252 13.9282 6.41155 14.5684 6.24002V6.24002Z" fill="#6880FF"/>
</svg>
