<svg width="30" height="30" viewBox="0 0 30 30" fill="none" xmlns="http://www.w3.org/2000/svg">
<g clip-path="url(#clip0_115_2195)">
<path d="M29.9983 14.9982C29.9983 23.2819 23.2838 29.9963 15.0001 29.9963C6.71643 29.9963 0.00195312 23.2819 0.00195312 14.9982C0.00195312 6.71448 6.71643 0 15.0001 0C23.2838 0 29.9983 6.71448 29.9983 14.9982Z" fill="white"/>
<path d="M15.0003 0C6.72023 0 -0.00706664 6.72546 0.00391969 14.9982C0.00575077 16.6534 0.269423 18.2446 0.765638 19.7351H5.25172V7.11731L15.0003 16.8658L24.747 7.11731V19.7351H29.2349C29.7311 18.2465 29.9948 16.6534 29.9966 14.9982C30.0112 6.71631 23.2821 0.00183105 15.0003 0.00183105V0Z" fill="#F26822"/>
<path d="M12.7588 19.1071L8.50342 14.8517V22.7911H2.18262C4.81567 27.1106 9.57275 30 15 30C20.4272 30 25.1843 27.1106 27.8174 22.7911H21.4948V14.8517L17.2412 19.1071L15 21.3464L12.7588 19.1071Z" fill="#4D4D4D"/>
</g>
<defs>
<clipPath id="clip0_115_2195">
<rect width="30" height="30" fill="white"/>
</clipPath>
</defs>
</svg>
