<svg width="30" height="30" viewBox="0 0 30 30" fill="none" xmlns="http://www.w3.org/2000/svg">
<g clip-path="url(#clip0_115_2061)">
<path d="M15.0055 30C6.73096 30.0055 0.00549655 23.2874 3.36629e-06 15.0055C-0.00548982 6.73096 6.71265 0.00549655 14.9945 3.36629e-06C23.269 -0.00548982 29.9945 6.71265 30 14.9945C30.0055 23.269 23.2874 29.9945 15.0055 30Z" fill="#0098DD"/>
<path fill-rule="evenodd" clip-rule="evenodd" d="M10.0875 5.93079C10.093 9.0033 10.093 12.0703 10.093 15.1428C10.093 15.7599 10.093 16.3788 10.093 16.9958C10.0948 19.4678 10.0948 21.9397 10.082 24.4116C10.082 24.6313 10.1278 24.6954 10.353 24.6899C11.2118 24.6716 12.0632 24.6716 12.922 24.6899C13.1655 24.6899 13.2296 24.6313 13.2296 24.3823C13.2223 22.7582 13.2223 21.1359 13.2241 19.5135C13.2241 18.9716 13.2241 18.4314 13.2241 17.8894C13.2241 17.4866 13.2241 17.4866 13.616 17.4866C13.865 17.4866 14.1158 17.4884 14.3667 17.4884C15.0332 17.4921 15.6997 17.4957 16.3625 17.4738C17.1554 17.45 17.9482 17.3804 18.7173 17.1606C20.162 16.7468 21.0079 15.6976 21.5408 14.3793C22.1926 12.7625 22.1798 11.0815 21.8026 9.40613C21.517 8.15186 20.8779 7.11548 19.8123 6.36292C18.9553 5.7605 17.9592 5.70557 16.9723 5.67078C15.5294 5.61951 14.092 5.62317 12.6528 5.62683C11.8984 5.62866 11.144 5.63049 10.3896 5.62317C10.1406 5.62317 10.0875 5.68909 10.0875 5.93079ZM13.2296 9.09302V11.543C13.2296 11.7059 13.2296 11.8707 13.2314 12.0337C13.2314 12.6874 13.2333 13.3392 13.2186 13.9874C13.2186 14.1705 13.2607 14.2474 13.4603 14.2419C13.8082 14.2346 14.1561 14.2365 14.504 14.2401C15.1998 14.2456 15.8956 14.2511 16.5859 14.1705C17.1499 14.1064 17.6589 13.9398 18.0544 13.5077C18.7777 12.7203 18.9004 11.7792 18.688 10.7849C18.4811 9.81995 17.7999 9.06921 16.7288 8.96301C15.8315 8.86963 14.938 8.86597 14.0426 8.86047C13.8394 8.85864 13.6361 8.85864 13.431 8.85498C13.2424 8.85498 13.2296 8.9447 13.2296 9.09302Z" fill="#FEFEFE"/>
</g>
<defs>
<clipPath id="clip0_115_2061">
<rect width="30" height="30" fill="white"/>
</clipPath>
</defs>
</svg>
