<svg width="52" height="52" viewBox="0 0 52 52" fill="none" xmlns="http://www.w3.org/2000/svg">
<path d="M19.268 34.4853L25.632 28.1213L31.9959 34.4853C32.2772 34.7666 32.6588 34.9246 33.0566 34.9246C33.4544 34.9246 33.836 34.7666 34.1173 34.4853C34.3986 34.204 34.5566 33.8224 34.5566 33.4246C34.5566 33.0268 34.3986 32.6453 34.1173 32.364L27.7533 26L34.1173 19.636C34.3986 19.3547 34.5566 18.9732 34.5566 18.5754C34.5566 18.1776 34.3986 17.796 34.1173 17.5147C33.836 17.2334 33.4544 17.0754 33.0566 17.0754C32.6588 17.0754 32.2772 17.2334 31.9959 17.5147L25.632 23.8787L19.268 17.5147C18.9867 17.2334 18.6052 17.0754 18.2074 17.0754C17.8095 17.0754 17.428 17.2334 17.1467 17.5147C16.8654 17.796 16.7074 18.1776 16.7074 18.5754C16.7074 18.9732 16.8654 19.3547 17.1467 19.636L23.5107 26L17.1467 32.364C16.8654 32.6453 16.7074 33.0268 16.7074 33.4246C16.7074 33.8224 16.8654 34.204 17.1467 34.4853C17.428 34.7666 17.8095 34.9246 18.2074 34.9246C18.6052 34.9246 18.9867 34.7666 19.268 34.4853Z" fill="#6880FF"/>
</svg>
