<svg width="30" height="30" viewBox="0 0 30 30" fill="none" xmlns="http://www.w3.org/2000/svg">
<g clip-path="url(#clip0_115_1275)">
<g clip-path="url(#clip1_115_1275)">
<path fill-rule="evenodd" clip-rule="evenodd" d="M15.0021 -0.00183105C23.2858 -0.00183105 30.0002 6.71265 30.0002 14.9963C30.0002 23.28 23.2858 29.9945 15.0021 29.9945C6.72021 29.9945 0.00390625 23.28 0.00390625 14.9963C0.00390625 6.71265 6.72021 -0.00183105 15.0021 -0.00183105Z" fill="#F01010"/>
<path fill-rule="evenodd" clip-rule="evenodd" d="M14.3629 10.1349H13.094C12.8853 10.1111 12.6307 10.1111 12.3781 10.0873C12.3085 10.1111 12.2847 10.1807 12.2609 10.2722C12.2389 10.3656 12.2609 10.4352 12.3085 10.5029L12.585 10.5267C12.931 10.5963 13.1855 10.6659 13.3485 10.7355C13.5096 10.827 13.6232 10.9882 13.6708 11.1969C13.7166 11.4056 13.7404 11.6821 13.7166 12.0282C13.6927 12.5134 13.6708 13.0902 13.647 13.7604C13.6232 14.4324 13.5774 15.1245 13.5316 15.8405C13.4858 16.9482 13.387 19.6472 13.0848 20.4474C13.0153 20.6323 12.8999 20.7477 12.7626 20.8173C12.5996 20.8868 12.4147 20.9546 12.184 20.9802L11.8123 21.026C11.7427 21.0718 11.7207 21.1414 11.7427 21.2567C11.7427 21.3263 11.7665 21.3959 11.8361 21.4655C12.1364 21.4417 12.4147 21.4178 12.715 21.3959H14.5424C14.8903 21.4178 15.1905 21.4417 15.4689 21.4655C15.5385 21.4178 15.5842 21.3501 15.5842 21.2567C15.5842 21.1633 15.5604 21.0956 15.4908 21.026L14.8445 20.9802C14.6357 20.9546 14.4728 20.9088 14.3574 20.8173C14.3007 20.7715 14.253 20.7056 14.2183 20.6287C14.0828 20.2991 14.0791 19.7443 14.0864 19.3982C14.1011 18.6823 14.1102 17.9663 14.1322 17.2504C14.156 16.5344 14.1798 15.91 14.2018 15.379C14.2238 14.8938 14.2714 14.3848 14.2933 13.8757C14.3171 13.3685 14.3391 12.8595 14.3629 12.3523H14.4105C14.5955 12.7441 14.7804 13.1378 14.9415 13.5754C15.1265 13.9929 15.3114 14.4086 15.4963 14.8022L17.0436 18.1036C17.1827 18.382 17.3439 18.728 17.5288 19.1437C17.7375 19.5831 17.9445 19.9988 18.1294 20.4144C18.2283 20.6342 18.3125 20.8411 18.3839 21.0352C18.4022 21.0352 18.5322 21.4618 18.5469 21.5112C18.6348 21.601 18.7812 21.5991 18.871 21.5112C19.0138 21.167 19.1639 20.8173 19.3306 20.484C19.7682 19.5026 20.2241 18.5651 20.7405 17.6202L22.2419 14.6393C22.3573 14.3848 22.4727 14.1083 22.6338 13.808C22.7968 13.4839 22.9579 13.1836 23.097 12.9291C23.2124 12.6526 23.304 12.4677 23.3497 12.3981H23.3735L23.4211 19.5374C23.4431 19.9072 23.4211 20.1837 23.3973 20.3906C23.379 20.5573 23.3314 20.7129 23.1739 20.7953C23.0806 20.9088 22.8956 20.9546 22.5953 20.9802L22.0863 21.026C22.0387 21.0718 22.0167 21.1414 22.0387 21.2567C22.0387 21.3263 22.0625 21.3959 22.1321 21.4655C22.48 21.4417 22.848 21.4178 23.1959 21.3959H25.1863C25.5323 21.4178 25.8802 21.4417 26.2281 21.4655C26.2977 21.4178 26.3197 21.3501 26.3197 21.2567C26.3435 21.1633 26.3197 21.0956 26.2739 21.026L25.7191 20.9802C25.4646 20.9546 25.2797 20.8868 25.1625 20.7697C25.0489 20.6543 24.9556 20.517 24.9318 20.3302C24.908 20.1233 24.886 19.8688 24.886 19.5905C24.8384 18.7317 24.8054 17.8583 24.7834 16.9958C24.7596 16.0712 24.7139 15.1941 24.6901 14.3628V12.1674C24.6901 11.7737 24.7139 11.4734 24.7596 11.2427C24.8072 11.0358 24.9226 10.8508 25.0837 10.7355C25.2449 10.6421 25.5232 10.5725 25.8912 10.5267L26.2391 10.5029C26.2849 10.4572 26.3087 10.3876 26.2849 10.2722C26.2849 10.2026 26.2629 10.1349 26.2153 10.0873C25.9388 10.1111 25.6605 10.1111 25.4078 10.1349H24.1591C23.9521 10.1111 23.7196 10.1111 23.4211 10.0873C23.3973 10.4791 23.2582 10.9204 23.0513 11.4276C22.7968 11.9586 22.4965 12.6068 22.1266 13.3685L20.5098 16.626C20.0905 17.5122 19.7078 18.3563 19.1932 19.1968H19.1475C18.7391 18.4259 18.3619 17.6257 17.9902 16.8347L16.0273 12.9071C15.7728 12.3523 15.5421 11.8213 15.3572 11.3361C15.196 10.8508 15.1265 10.4352 15.1503 10.0873C14.8719 10.1111 14.6174 10.1111 14.3629 10.1349ZM4.88354 18.9166C4.88354 19.5044 4.85974 19.953 4.81396 20.2588C4.76636 20.8539 4.37451 21.048 3.82153 21.0864L3.46814 21.134C3.35461 21.2476 3.36377 21.4948 3.49194 21.5808C4.22253 21.535 4.88354 21.5094 5.61597 21.5094C6.396 21.5094 7.12476 21.5442 7.90295 21.5808C7.95056 21.5332 7.97436 21.4636 7.99817 21.3684C7.99817 21.2512 7.97436 21.1798 7.92676 21.134L7.45434 21.0864C7.07715 21.0626 6.81897 20.9912 6.67615 20.874C6.66882 20.8667 6.65967 20.8612 6.65234 20.8539C6.50952 20.7349 6.40698 20.5554 6.36304 20.2734C6.31726 19.9677 6.29346 19.5209 6.31726 18.9331V17.2833C5.79907 17.3071 5.32849 17.2833 4.90369 17.2119L4.88354 18.9166ZM3.37292 10.3125C3.34912 10.4059 3.39673 10.4773 3.46631 10.5469L4.07971 10.6183C4.33789 10.6421 4.52649 10.7117 4.64368 10.8307C4.76269 10.9241 4.83411 11.0889 4.85608 11.347C4.87988 11.6071 4.90369 11.9843 4.90369 12.4786V15.965C5.37427 15.9888 5.84485 15.9888 6.31726 15.965V11.1603C6.29346 10.9717 6.31726 10.8307 6.36304 10.7117C6.38684 10.6421 6.48206 10.5707 6.59924 10.5469C6.74023 10.5249 6.97644 10.5249 7.28223 10.5249C8.17761 10.5469 8.86059 10.7831 9.35498 11.2775C9.82556 11.7719 10.0618 12.4548 10.0618 13.3026C10.0856 14.057 9.89697 14.6924 9.49597 15.2106C9.14258 15.6592 8.62439 15.9888 7.9176 16.1536C7.23462 16.3184 6.26965 16.3879 4.97327 16.3641C3.84351 16.3422 2.61853 16.2708 1.27637 16.1298C2.76135 16.4355 3.86731 16.6479 4.5741 16.7175C5.72766 16.8604 6.85742 16.8365 7.9176 16.6718C8.45959 16.6003 8.95398 16.4594 9.40259 16.2946C9.82556 16.106 10.2504 15.8478 10.6971 15.5402C10.9572 15.3516 11.1915 15.0458 11.4039 14.6448C11.5706 14.2694 11.6639 13.8208 11.6859 13.2788C11.6639 12.6892 11.5229 12.1729 11.2629 11.7242C11.0048 11.2775 10.6971 10.9241 10.298 10.6659C9.89697 10.4297 9.40259 10.2411 8.83679 10.1221C8.2948 10.0287 7.65942 9.98108 6.92883 9.98108C6.22205 9.98108 5.58667 9.98108 5.02087 10.0049C4.45508 10.0287 3.93872 10.0525 3.49011 10.1001C3.42053 10.1477 3.37292 10.2173 3.37292 10.3125Z" fill="white"/>
</g>
</g>
<defs>
<clipPath id="clip0_115_1275">
<rect width="30" height="30" fill="white"/>
</clipPath>
<clipPath id="clip1_115_1275">
<rect width="30" height="30" fill="white"/>
</clipPath>
</defs>
</svg>
