<svg width="30" height="30" viewBox="0 0 30 30" fill="none" xmlns="http://www.w3.org/2000/svg">
<path d="M24.8148 20.166C24.8923 20.7477 24.7179 20.9998 24.5241 20.9998C24.3303 20.9998 24.0591 20.7671 23.7684 20.3017C23.4777 19.8363 23.3615 19.3128 23.5165 19.0413C23.6134 18.8668 23.8072 18.7893 24.0784 18.8862C24.5629 19.0607 24.7566 19.8169 24.8148 20.166ZM22.0632 21.4457C22.6639 21.9499 22.8383 22.551 22.5282 22.9582C22.3538 23.1909 22.0632 23.3072 21.7338 23.3072C21.4044 23.3072 21.0556 23.1909 20.823 22.9776C20.2805 22.5122 20.1255 21.7366 20.4742 21.31C20.6099 21.1355 20.8424 21.0385 21.0943 21.0385C21.4237 21.0579 21.7725 21.1937 22.0632 21.4457ZM21.0749 26.2933C23.6328 26.2933 26.4037 27.1659 29.4653 29.8999C29.7754 30.1714 30.1823 29.8418 29.911 29.4927C26.8881 25.6728 24.0978 24.9554 21.3268 24.3349C17.9164 23.5787 16.1725 21.659 14.9517 19.5649C14.6998 19.1383 14.6029 19.2158 14.5835 19.7588C14.5642 20.418 14.6029 21.2906 14.7579 22.1438C14.6223 22.1438 14.4866 22.1438 14.351 22.1438C9.48728 22.1438 5.5343 18.1882 5.5343 13.3212C5.5343 8.4542 9.48728 4.49856 14.351 4.49856C19.2147 4.49856 23.1677 8.4542 23.1677 13.3212C23.1677 13.6702 23.1483 14.0192 23.1096 14.3489C22.4701 14.2325 21.1912 14.2131 20.2998 14.2907C19.9704 14.3101 20.0092 14.4846 20.2611 14.5234C23.1677 15.0469 25.1829 16.8502 25.6286 20.1466C25.648 20.2241 25.7449 20.2435 25.7836 20.1854C26.985 18.1882 27.6632 15.8419 27.6632 13.3406C27.6632 5.97223 21.695 0 14.3316 0C6.96823 0 1 5.97223 1 13.3406C1 20.7089 6.96823 26.6811 14.3316 26.6811C16.2887 26.6811 18.2265 26.2933 21.0749 26.2933Z" fill="#FF8C00"/>
</svg>
