<svg width="20" height="21" viewBox="0 0 20 21" fill="none" xmlns="http://www.w3.org/2000/svg">
<path d="M6.66634 18H3.33301C3.11199 18 2.90003 17.9122 2.74375 17.7559C2.58747 17.5996 2.49967 17.3877 2.49967 17.1666V13.8333C2.49967 13.6123 2.41188 13.4003 2.2556 13.2441C2.09932 13.0878 1.88735 13 1.66634 13C1.44533 13 1.23337 13.0878 1.07709 13.2441C0.920805 13.4003 0.833008 13.6123 0.833008 13.8333V17.1666C0.833008 17.8297 1.0964 18.4656 1.56524 18.9344C2.03408 19.4033 2.66997 19.6666 3.33301 19.6666H6.66634C6.88736 19.6666 7.09932 19.5788 7.2556 19.4226C7.41188 19.2663 7.49967 19.0543 7.49967 18.8333C7.49967 18.6123 7.41188 18.4003 7.2556 18.2441C7.09932 18.0878 6.88736 18 6.66634 18ZM18.333 13C18.112 13 17.9 13.0878 17.7438 13.2441C17.5875 13.4003 17.4997 13.6123 17.4997 13.8333V17.1666C17.4997 17.3877 17.4119 17.5996 17.2556 17.7559C17.0993 17.9122 16.8874 18 16.6663 18H13.333C13.112 18 12.9 18.0878 12.7438 18.2441C12.5875 18.4003 12.4997 18.6123 12.4997 18.8333C12.4997 19.0543 12.5875 19.2663 12.7438 19.4226C12.9 19.5788 13.112 19.6666 13.333 19.6666H16.6663C17.3294 19.6666 17.9653 19.4033 18.4341 18.9344C18.903 18.4656 19.1663 17.8297 19.1663 17.1666V13.8333C19.1663 13.6123 19.0785 13.4003 18.9223 13.2441C18.766 13.0878 18.554 13 18.333 13ZM16.6663 1.33331H13.333C13.112 1.33331 12.9 1.42111 12.7438 1.57739C12.5875 1.73367 12.4997 1.94563 12.4997 2.16665C12.4997 2.38766 12.5875 2.59962 12.7438 2.7559C12.9 2.91218 13.112 2.99998 13.333 2.99998H16.6663C16.8874 2.99998 17.0993 3.08778 17.2556 3.24406C17.4119 3.40034 17.4997 3.6123 17.4997 3.83331V7.16665C17.4997 7.38766 17.5875 7.59962 17.7438 7.7559C17.9 7.91218 18.112 7.99998 18.333 7.99998C18.554 7.99998 18.766 7.91218 18.9223 7.7559C19.0785 7.59962 19.1663 7.38766 19.1663 7.16665V3.83331C19.1663 3.17027 18.903 2.53439 18.4341 2.06555C17.9653 1.59671 17.3294 1.33331 16.6663 1.33331ZM1.66634 7.99998C1.88735 7.99998 2.09932 7.91218 2.2556 7.7559C2.41188 7.59962 2.49967 7.38766 2.49967 7.16665V3.83331C2.49967 3.6123 2.58747 3.40034 2.74375 3.24406C2.90003 3.08778 3.11199 2.99998 3.33301 2.99998H6.66634C6.88736 2.99998 7.09932 2.91218 7.2556 2.7559C7.41188 2.59962 7.49967 2.38766 7.49967 2.16665C7.49967 1.94563 7.41188 1.73367 7.2556 1.57739C7.09932 1.42111 6.88736 1.33331 6.66634 1.33331H3.33301C2.66997 1.33331 2.03408 1.59671 1.56524 2.06555C1.0964 2.53439 0.833008 3.17027 0.833008 3.83331V7.16665C0.833008 7.38766 0.920805 7.59962 1.07709 7.7559C1.23337 7.91218 1.44533 7.99998 1.66634 7.99998ZM8.33301 4.66665H4.99967C4.77866 4.66665 4.5667 4.75444 4.41042 4.91072C4.25414 5.067 4.16634 5.27897 4.16634 5.49998V8.83331C4.16634 9.05433 4.25414 9.26629 4.41042 9.42257C4.5667 9.57885 4.77866 9.66665 4.99967 9.66665H8.33301C8.55402 9.66665 8.76598 9.57885 8.92226 9.42257C9.07854 9.26629 9.16634 9.05433 9.16634 8.83331V5.49998C9.16634 5.27897 9.07854 5.067 8.92226 4.91072C8.76598 4.75444 8.55402 4.66665 8.33301 4.66665ZM7.49967 7.99998H5.83301V6.33331H7.49967V7.99998ZM11.6663 9.66665H14.9997C15.2207 9.66665 15.4327 9.57885 15.5889 9.42257C15.7452 9.26629 15.833 9.05433 15.833 8.83331V5.49998C15.833 5.27897 15.7452 5.067 15.5889 4.91072C15.4327 4.75444 15.2207 4.66665 14.9997 4.66665H11.6663C11.4453 4.66665 11.2334 4.75444 11.0771 4.91072C10.9208 5.067 10.833 5.27897 10.833 5.49998V8.83331C10.833 9.05433 10.9208 9.26629 11.0771 9.42257C11.2334 9.57885 11.4453 9.66665 11.6663 9.66665ZM12.4997 6.33331H14.1663V7.99998H12.4997V6.33331ZM8.33301 11.3333H4.99967C4.77866 11.3333 4.5667 11.4211 4.41042 11.5774C4.25414 11.7337 4.16634 11.9456 4.16634 12.1666V15.5C4.16634 15.721 4.25414 15.933 4.41042 16.0892C4.5667 16.2455 4.77866 16.3333 4.99967 16.3333H8.33301C8.55402 16.3333 8.76598 16.2455 8.92226 16.0892C9.07854 15.933 9.16634 15.721 9.16634 15.5V12.1666C9.16634 11.9456 9.07854 11.7337 8.92226 11.5774C8.76598 11.4211 8.55402 11.3333 8.33301 11.3333ZM7.49967 14.6666H5.83301V13H7.49967V14.6666ZM11.6663 13.8333C11.8874 13.8333 12.0993 13.7455 12.2556 13.5892C12.4119 13.433 12.4997 13.221 12.4997 13C12.7207 13 12.9327 12.9122 13.0889 12.7559C13.2452 12.5996 13.333 12.3877 13.333 12.1666C13.333 11.9456 13.2452 11.7337 13.0889 11.5774C12.9327 11.4211 12.7207 11.3333 12.4997 11.3333H11.6663C11.4453 11.3333 11.2334 11.4211 11.0771 11.5774C10.9208 11.7337 10.833 11.9456 10.833 12.1666V13C10.833 13.221 10.9208 13.433 11.0771 13.5892C11.2334 13.7455 11.4453 13.8333 11.6663 13.8333ZM14.9997 11.3333C14.7787 11.3333 14.5667 11.4211 14.4104 11.5774C14.2541 11.7337 14.1663 11.9456 14.1663 12.1666V14.6666C13.9453 14.6666 13.7334 14.7544 13.5771 14.9107C13.4208 15.067 13.333 15.279 13.333 15.5C13.333 15.721 13.4208 15.933 13.5771 16.0892C13.7334 16.2455 13.9453 16.3333 14.1663 16.3333H14.9997C15.2207 16.3333 15.4327 16.2455 15.5889 16.0892C15.7452 15.933 15.833 15.721 15.833 15.5V12.1666C15.833 11.9456 15.7452 11.7337 15.5889 11.5774C15.4327 11.4211 15.2207 11.3333 14.9997 11.3333ZM11.6663 14.6666C11.5015 14.6666 11.3404 14.7155 11.2034 14.8071C11.0663 14.8987 10.9595 15.0288 10.8964 15.1811C10.8334 15.3334 10.8169 15.5009 10.849 15.6626C10.8812 15.8242 10.9605 15.9727 11.0771 16.0892C11.1936 16.2058 11.3421 16.2851 11.5038 16.3173C11.6654 16.3495 11.833 16.333 11.9852 16.2699C12.1375 16.2068 12.2677 16.1 12.3592 15.963C12.4508 15.8259 12.4997 15.6648 12.4997 15.5C12.4997 15.279 12.4119 15.067 12.2556 14.9107C12.0993 14.7544 11.8874 14.6666 11.6663 14.6666Z" fill="#6880FF"/>
</svg>
