<svg width="30" height="30" viewBox="0 0 30 30" fill="none" xmlns="http://www.w3.org/2000/svg">
<mask id="mask0_120_5" style="mask-type:alpha" maskUnits="userSpaceOnUse" x="0" y="3" width="30" height="23">
<path d="M26.7857 3H3.21429C2.3618 3 1.54424 3.36348 0.941443 4.01048C0.338647 4.65748 0 5.535 0 6.45V22.55C0 23.465 0.338647 24.3425 0.941443 24.9895C1.54424 25.6365 2.3618 26 3.21429 26H26.7857C27.6382 26 28.4558 25.6365 29.0586 24.9895C29.6614 24.3425 30 23.465 30 22.55V6.45C30 5.535 29.6614 4.65748 29.0586 4.01048C28.4558 3.36348 27.6382 3 26.7857 3ZM3.21429 5.3H26.7857C27.0699 5.3 27.3424 5.42116 27.5433 5.63683C27.7443 5.85249 27.8571 6.145 27.8571 6.45V6.96111C27.8571 7.94909 27.111 8.75 26.1905 8.75H3.80953C2.88905 8.75 2.14286 7.94909 2.14286 6.96111V6.45C2.14286 6.145 2.25574 5.85249 2.45667 5.63683C2.6576 5.42116 2.93013 5.3 3.21429 5.3ZM26.7857 23.7H3.21429C2.93013 23.7 2.6576 23.5788 2.45667 23.3632C2.25574 23.1475 2.14286 22.855 2.14286 22.55V12.8389C2.14286 11.8509 2.88905 11.05 3.80952 11.05H26.1905C27.1109 11.05 27.8571 11.8509 27.8571 12.8389V22.55C27.8571 22.855 27.7443 23.1475 27.5433 23.3632C27.3424 23.5788 27.0699 23.7 26.7857 23.7Z" fill="#6880FF"/>
<path d="M23.5714 20.25H16.0714C15.4797 20.25 15 20.7649 15 21.4C15 22.0352 15.4797 22.55 16.0714 22.55H23.5714C24.1632 22.55 24.6429 22.0352 24.6429 21.4C24.6429 20.7649 24.1632 20.25 23.5714 20.25Z" fill="#6880FF"/>
</mask>
<g mask="url(#mask0_120_5)">
<path d="M-3 -1H37V8H-3V-1Z" fill="#D9D9D9"/>
<path d="M-3 8H37V17H-3V8Z" fill="#6880FF"/>
<path d="M-3 17H37V26H-3V17Z" fill="#F96060"/>
</g>
</svg>
