<svg width="30" height="30" viewBox="0 0 30 30" fill="none" xmlns="http://www.w3.org/2000/svg">
<g clip-path="url(#clip0_115_1264)">
<path d="M3 6.53027L6.63281 13.0225V16.9834L3.00293 23.4668L3 6.53027Z" fill="#5B57A2"/>
<path d="M16.9478 10.6611L20.3521 8.57513L27.3188 8.56927L16.9478 14.9208V10.6611Z" fill="#D90751"/>
<path d="M16.9307 6.49219L16.9482 15.0879L13.3066 12.8525V0L16.9307 6.49219Z" fill="#FAB718"/>
<path d="M27.3193 8.56641L20.3525 8.5752L16.9307 6.49219L13.3066 0L27.3193 8.56641Z" fill="#ED6F26"/>
<path d="M16.9482 23.5019V19.33L13.3066 17.1357L13.3096 29.9999L16.9482 23.5019Z" fill="#63B22F"/>
<path d="M20.3438 21.4336L6.63281 13.0225L3 6.53027L27.3047 21.4248L20.3438 21.4336Z" fill="#1487C9"/>
<path d="M13.3101 30L16.9487 23.502L20.3442 21.4336L27.3052 21.4248L13.3101 30Z" fill="#017F36"/>
<path d="M3.00586 23.4669L13.3389 17.1358L9.86426 15.0059L6.63281 16.9864L3.00586 23.4669Z" fill="#984995"/>
</g>
<defs>
<clipPath id="clip0_115_1264">
<rect width="30" height="30" fill="white"/>
</clipPath>
</defs>
</svg>
