<svg width="30" height="30" viewBox="0 0 30 30" fill="none" xmlns="http://www.w3.org/2000/svg">
<g clip-path="url(#clip0_115_2071)">
<g clip-path="url(#clip1_115_2071)">
<path d="M26.428 11.3206C26.4278 12.0797 26.1134 12.8077 25.554 13.3445C24.9946 13.8814 24.2359 14.1831 23.4447 14.1835C21.7969 14.1835 20.4792 12.9015 20.4792 11.3206C20.4792 10.5613 20.7936 9.83313 21.3533 9.29623C21.9129 8.75933 22.6719 8.4577 23.4633 8.4577C24.2547 8.4577 25.0137 8.75933 25.5733 9.29623C26.1329 9.83313 26.4473 10.5613 26.4473 11.3206H26.428ZM23.4261 6.00001C21.9606 5.99698 20.5537 6.55177 19.5141 7.54267C18.4744 8.53358 17.8869 9.87967 17.8804 11.2857L14.4212 16.0448C14.2754 16.027 14.1282 16.027 14.0003 16.027C13.2531 16.0298 12.5203 16.2238 11.8774 16.5891L-3.79014 10.548C-3.99165 9.66241 -4.50268 8.86955 -5.23845 8.30093C-5.97422 7.73232 -6.8905 7.42213 -7.83529 7.42183C-8.93652 7.4241 -9.99197 7.84485 -10.7706 8.592C-11.5492 9.33915 -11.9876 10.3518 -11.9897 11.4084C-11.9874 12.4648 -11.549 13.4774 -10.7704 14.2245C-9.9918 14.9716 -8.93646 15.3924 -7.83529 15.3949C-7.0881 15.3921 -6.35523 15.198 -5.71233 14.8327L9.95518 20.8739C10.1567 21.7594 10.6677 22.5523 11.4035 23.1209C12.1393 23.6895 13.0555 23.9997 14.0003 24C16.1419 24 17.9183 22.4198 18.1183 20.418L23.4454 16.6776C24.1739 16.6781 24.8952 16.5408 25.5683 16.2735C26.2413 16.0063 26.8529 15.6144 27.3679 15.1203C27.883 14.6261 28.2915 14.0394 28.57 13.3937C28.8485 12.7479 28.9916 12.0558 28.9912 11.357C28.9916 10.6582 28.8485 9.96607 28.57 9.32033C28.2915 8.6746 27.883 8.08787 27.3679 7.59372C26.8529 7.09956 26.2413 6.70767 25.5683 6.44045C24.8952 6.17323 24.1739 6.03593 23.4454 6.0364L23.4261 6.00001ZM23.4261 7.75571C24.4114 7.75628 25.3562 8.13205 26.0529 8.80047C26.7496 9.4689 27.1413 10.3753 27.1418 11.3206C27.1413 12.2659 26.7496 13.1723 26.0529 13.8407C25.3562 14.5092 24.4114 14.8849 23.4261 14.8855C22.4409 14.8848 21.4964 14.5089 20.7998 13.8405C20.1033 13.1721 19.7117 12.2658 19.7111 11.3206C19.7117 10.3754 20.1033 9.46913 20.7998 8.80072C21.4964 8.13232 22.4409 7.75647 23.4261 7.75571ZM-7.85462 8.45842C-6.68346 8.45842 -5.67664 9.0905 -5.16356 10.0037L-6.68272 9.42437C-7.90891 9.00275 -9.26373 9.58203 -9.73889 10.7413C-10.2341 11.9006 -9.66676 13.2176 -8.47701 13.7262L-7.1958 14.2178C-7.41153 14.2673 -7.63282 14.291 -7.85462 14.2884C-8.25628 14.2891 -8.65414 14.2138 -9.02538 14.0667C-9.39662 13.9196 -9.73392 13.7035 -10.0179 13.4311C-10.302 13.1586 -10.5271 12.835 -10.6804 12.4788C-10.8338 12.1226 -10.9123 11.7409 -10.9115 11.3556C-10.9123 10.9702 -10.8338 10.5885 -10.6804 10.2323C-10.5271 9.87617 -10.302 9.55256 -10.0179 9.28007C-9.73392 9.00759 -9.39662 8.79158 -9.02538 8.64446C-8.65414 8.49734 -8.25628 8.42199 -7.85462 8.42275V8.45842ZM13.9817 17.0635C14.3834 17.0626 14.7813 17.1378 15.1525 17.2848C15.5238 17.4318 15.8612 17.6477 16.1452 17.9202C16.4293 18.1926 16.6544 18.5162 16.8077 18.8724C16.9611 19.2286 17.0395 19.6103 17.0386 19.9957C17.0394 20.381 16.9609 20.7626 16.8075 21.1188C16.6542 21.4749 16.429 21.7985 16.145 22.0709C15.861 22.3433 15.5237 22.5593 15.1524 22.7063C14.7812 22.8533 14.3834 22.9286 13.9817 22.9278C13.4268 22.9302 12.8818 22.7856 12.407 22.5099C11.9322 22.2342 11.5459 21.8382 11.2907 21.3654C11.7852 21.5587 12.2975 21.7521 12.7927 21.9447C13.3905 22.1709 14.0568 22.1632 14.6488 21.9234C15.2407 21.6836 15.7111 21.2307 15.9589 20.662C16.077 20.3784 16.1355 20.0753 16.1313 19.77C16.1271 19.4647 16.0602 19.1632 15.9345 18.8827C15.8087 18.6022 15.6266 18.3483 15.3984 18.1354C15.1703 17.9226 14.9006 17.7549 14.6049 17.6421L13.3422 17.1513C13.5616 17.0985 13.781 17.08 14.0011 17.08L13.9817 17.0635Z" fill="#333333"/>
</g>
</g>
<defs>
<clipPath id="clip0_115_2071">
<rect width="30" height="30" fill="white"/>
</clipPath>
<clipPath id="clip1_115_2071">
<rect width="41" height="18" fill="white" transform="translate(-12 6)"/>
</clipPath>
</defs>
</svg>
