<svg width="30" height="30" viewBox="0 0 30 30" fill="none" xmlns="http://www.w3.org/2000/svg">
<g clip-path="url(#clip0_115_1973)">
<path d="M30 15C30 23.2837 23.2837 30 15 30C6.71631 30 0 23.2837 0 15C0 6.71631 6.71631 0 15 0C23.2837 0 30 6.71631 30 15Z" fill="#0088CC"/>
<path fill-rule="evenodd" clip-rule="evenodd" d="M10.8269 9.91333H19.2388C19.5373 9.91333 19.8339 9.95728 20.1452 10.1019C20.5169 10.2759 20.7146 10.5487 20.8538 10.752C20.8648 10.7666 20.8739 10.7831 20.8831 10.7996C21.046 11.0907 21.1303 11.402 21.1303 11.7389C21.1303 12.0593 21.0552 12.4072 20.8831 12.7112C20.8812 12.713 20.8812 12.7167 20.8794 12.7185L15.5639 21.85C15.4467 22.0514 15.2306 22.1741 14.9981 22.1741C14.7655 22.1722 14.5495 22.0477 14.4341 21.8463L9.2156 12.735C9.2156 12.7332 9.21377 12.7295 9.21194 12.7277C9.09292 12.5299 8.90798 12.226 8.87502 11.8341C8.84573 11.4734 8.92629 11.1108 9.10757 10.7977C9.29067 10.4828 9.5635 10.2319 9.89126 10.0781C10.2447 9.91516 10.6017 9.91333 10.8269 9.91333ZM14.348 11.217H10.8269C10.5944 11.217 10.5065 11.2317 10.4442 11.261C10.3582 11.3013 10.2849 11.3672 10.2373 11.4496C10.1897 11.5338 10.1677 11.6309 10.1751 11.7261C10.1806 11.7828 10.2025 11.8451 10.3362 12.0648C10.338 12.0703 10.3417 12.0758 10.3435 12.0795L14.348 19.0704V11.217ZM15.6518 11.217V19.1052L19.7478 12.0685C19.7954 11.9843 19.8266 11.8634 19.8266 11.7389C19.8266 11.6382 19.8046 11.5521 19.7588 11.4606C19.7094 11.391 19.6801 11.3544 19.6544 11.3287C19.6343 11.3068 19.6178 11.2939 19.594 11.283C19.497 11.239 19.3981 11.217 19.2388 11.217H15.6518Z" fill="white"/>
</g>
<defs>
<clipPath id="clip0_115_1973">
<rect width="30" height="30" fill="white"/>
</clipPath>
</defs>
</svg>
