<svg width="30" height="30" viewBox="0 0 30 30" fill="none" xmlns="http://www.w3.org/2000/svg">
<g clip-path="url(#clip0_118_89)">
<path d="M29.9998 14.7894C30.1151 23.0731 23.494 29.8828 15.2103 29.9982C6.92665 30.1135 0.118794 23.4924 0.00343786 15.2087C-0.111918 6.92504 6.50918 0.115346 14.7929 -1.06164e-05C23.0747 -0.115367 29.8844 6.50573 29.9998 14.7894Z" fill="#EB0017"/>
<path d="M22.2527 11.1145L15.7506 14.1632L20.0957 9.58191L22.2527 11.1145ZM19.5519 9.375L14.6245 14.5953L7.83313 6.5625L19.5519 9.375ZM7.74707 7.27112L14.3444 15.0714L13.5002 23.4338L7.74707 7.27112ZM14.0093 23.4375L14.8607 15.1611L21.9487 11.8396L14.0093 23.4375Z" fill="white"/>
</g>
<defs>
<clipPath id="clip0_118_89">
<rect width="30" height="30" fill="white"/>
</clipPath>
</defs>
</svg>
