<svg width="30" height="30" viewBox="0 0 30 30" fill="none" xmlns="http://www.w3.org/2000/svg">
<g clip-path="url(#clip0_115_2112)">
<path d="M15 30C23.313 30 30 23.313 30 15C30 6.68701 23.313 0 15 0C6.68701 0 0 6.68701 0 15C0 23.313 6.68701 30 15 30Z" fill="#2775CA"/>
<path d="M19.1252 17.3749C19.1252 15.1868 17.8124 14.4379 15.1866 14.1248C13.3116 13.8757 12.9381 13.3759 12.9381 12.5006C12.9381 11.6254 13.5625 11.0632 14.8131 11.0632C15.9374 11.0632 16.5618 11.4368 16.8749 12.3743C16.9371 12.5629 17.1257 12.6874 17.3125 12.6874H18.3123C18.5631 12.6874 18.7499 12.5006 18.7499 12.2498V12.1875C18.499 10.8124 17.3748 9.75037 15.9374 9.62585V8.12439C15.9374 7.87537 15.7506 7.68677 15.4375 7.62451H14.5C14.2491 7.62451 14.0624 7.81311 14.0001 8.12439V9.56177C12.1251 9.81262 10.9368 11.0632 10.9368 12.6251C10.9368 14.6869 12.1874 15.4999 14.8131 15.813C16.5618 16.1243 17.1257 16.4996 17.1257 17.4994C17.1257 18.501 16.2505 19.1876 15.0621 19.1876C13.438 19.1876 12.874 18.4991 12.6873 17.5616C12.625 17.3126 12.4382 17.1881 12.2496 17.1881H11.1876C10.9368 17.1881 10.75 17.3749 10.75 17.6257V17.688C10.999 19.2499 12.0006 20.3741 14.0624 20.6873V22.1869C14.0624 22.4377 14.2491 22.6245 14.5623 22.6868H15.4998C15.7506 22.6868 15.9374 22.5 15.9996 22.1869V20.6873C17.8746 20.3741 19.1252 19.0631 19.1252 17.3749Z" fill="white"/>
<path d="M11.8119 23.9374C6.93768 22.1869 4.43646 16.7505 6.2492 11.9366C7.1867 9.31274 9.2503 7.31323 11.8119 6.37573C12.0628 6.24939 12.1873 6.06262 12.1873 5.74951V4.87427C12.1873 4.62524 12.0628 4.43665 11.8119 4.37439C11.7497 4.37439 11.6252 4.37439 11.5629 4.43665C5.62481 6.31165 2.37469 12.6251 4.24969 18.5632C5.37396 22.0624 8.06195 24.7504 11.5629 25.8746C11.8119 25.9991 12.0628 25.8746 12.1251 25.6256C12.1873 25.5634 12.1873 25.4993 12.1873 25.3748V24.4995C12.1873 24.3127 12.0005 24.0619 11.8119 23.9374ZM18.4367 4.43665C18.1877 4.31213 17.9368 4.43665 17.8746 4.6875C17.8123 4.74976 17.8123 4.81201 17.8123 4.93835V5.81177C17.8123 6.06262 17.9991 6.31165 18.1877 6.43799C23.0619 8.18665 25.5632 13.6249 23.7504 18.4369C22.8129 21.0626 20.7493 23.0621 18.1877 23.9996C17.9368 24.1241 17.8123 24.3127 17.8123 24.6259V25.4993C17.8123 25.7501 17.9368 25.9369 18.1877 25.9991C18.2499 25.9991 18.3744 25.9991 18.4367 25.9369C24.3748 24.0619 27.6249 17.7502 25.7499 11.8121C24.6257 8.25073 21.8754 5.56274 18.4367 4.43665Z" fill="white"/>
<path d="M30 22.5C30 26.6418 26.6418 30 22.5 30C18.3582 30 15 26.6418 15 22.5C15 18.3582 18.3582 15 22.5 15C26.6418 15 30 18.3582 30 22.5Z" fill="#131419"/>
<path fill-rule="evenodd" clip-rule="evenodd" d="M20.1143 21.5222L22.5001 19.1364L24.886 21.5222L26.2721 20.1361L22.5001 16.3641L18.7281 20.1361L20.1143 21.5222ZM17.7485 21.1176L16.3643 22.5018L17.7485 23.8879L19.1346 22.5018L17.7485 21.1176ZM22.5001 25.8673L20.1143 23.4814L18.7281 24.8676L22.5001 28.6395L26.2721 24.8676L24.886 23.4814L22.5001 25.8673ZM27.2517 21.1176L25.8656 22.5018L27.2517 23.8879L28.636 22.5018L27.2517 21.1176ZM22.5001 21.0956L23.9064 22.5018L22.5001 23.9081L21.0939 22.5018L21.3374 22.2491L21.4637 22.1338L22.5001 21.0956Z" fill="#F0B90B"/>
</g>
<defs>
<clipPath id="clip0_115_2112">
<rect width="30" height="30" fill="white"/>
</clipPath>
</defs>
</svg>
