<svg width="32" height="30" viewBox="0 0 32 30" fill="none" xmlns="http://www.w3.org/2000/svg">
<path d="M14.9561 30C23.2434 30 29.9103 23.313 29.9103 15C29.9103 6.68701 23.2434 0 14.9561 0C6.66687 0 0 6.68701 0 15C0 23.313 6.66687 30 14.9561 30Z" fill="#2775CA"/>
<path d="M19.0687 17.3749C19.0687 15.1868 17.7595 14.4379 15.1429 14.1248C13.2734 13.8757 12.8999 13.3759 12.8999 12.5006C12.8999 11.6254 13.5225 11.0632 14.7694 11.0632C15.89 11.0632 16.5126 11.4368 16.8257 12.3743C16.8879 12.5629 17.0747 12.6874 17.2615 12.6874H18.2576C18.5066 12.6874 18.6952 12.5006 18.6952 12.2498V12.1875C18.4443 10.8124 17.3237 9.75037 15.89 9.62585V8.12439C15.89 7.87537 15.7032 7.68677 15.392 7.62451H14.4563C14.2073 7.62451 14.0205 7.81311 13.9583 8.12439V9.56177C12.0887 9.81262 10.9059 11.0632 10.9059 12.6251C10.9059 14.6869 12.151 15.4999 14.7694 15.813C16.5126 16.1243 17.0747 16.4996 17.0747 17.4994C17.0747 18.501 16.2013 19.1876 15.0184 19.1876C13.3979 19.1876 12.8376 18.4991 12.649 17.5616C12.5868 17.3126 12.4 17.1881 12.2133 17.1881H11.1549C10.9059 17.1881 10.7173 17.3749 10.7173 17.6257V17.688C10.9681 19.2499 11.9642 20.3741 14.0205 20.6873V22.1869C14.0205 22.4377 14.2073 22.6245 14.5186 22.6868H15.4542C15.7032 22.6868 15.89 22.5 15.9523 22.1869V20.6873C17.8218 20.3741 19.0687 19.0631 19.0687 17.3749Z" fill="white"/>
<path d="M11.7772 23.9374C6.91754 22.1869 4.42365 16.7505 6.2309 11.9366C7.16657 9.31274 9.22284 7.31323 11.7772 6.37573C12.0262 6.24939 12.1507 6.06262 12.1507 5.74951V4.87427C12.1507 4.62524 12.0262 4.43665 11.7772 4.37439C11.7149 4.37439 11.5904 4.37439 11.5281 4.43665C5.60834 6.31165 2.36737 12.6251 4.23688 18.5632C5.35932 22.0624 8.03815 24.7504 11.5281 25.8746C11.7772 25.9991 12.0262 25.8746 12.0884 25.6256C12.1507 25.5634 12.1507 25.4993 12.1507 25.3748V24.4995C12.1507 24.3127 11.9639 24.0619 11.7772 23.9374ZM18.3818 4.43665C18.1328 4.31213 17.8837 4.43665 17.8215 4.6875C17.7592 4.74976 17.7592 4.81201 17.7592 4.93835V5.81177C17.7592 6.06262 17.946 6.31165 18.1328 6.43799C22.9942 8.18665 25.4863 13.6249 23.679 18.4369C22.7452 21.0626 20.6889 23.0621 18.1328 23.9996C17.8837 24.1241 17.7592 24.3127 17.7592 24.6259V25.4993C17.7592 25.7501 17.8837 25.9369 18.1328 25.9991C18.195 25.9991 18.3195 25.9991 18.3818 25.9369C24.3016 24.0619 27.5425 17.7502 25.673 11.8121C24.5524 8.25073 21.8095 5.56274 18.3818 4.43665Z" fill="white"/>
<path d="M25.4717 15L30.0164 22.5348L25.4882 20.5939L25.4717 15Z" fill="#E68F7B"/>
<path d="M20.938 22.5348L25.4717 15L25.4882 20.5939L20.938 22.5348Z" fill="#F8EC7C"/>
<path d="M25.4717 25.3125L20.938 22.5348L25.4882 20.592L25.4717 25.3125Z" fill="#6EB87D"/>
<path d="M30.0164 22.5348L25.4882 20.592L25.4717 25.3125L30.0164 22.5348Z" fill="#946BA7"/>
<path d="M25.4717 26.2683L30.0164 23.5657L25.4717 29.9908V26.2683Z" fill="#697CB9"/>
<path d="M25.4717 26.2683L20.938 23.5657L25.4717 29.9908V26.2683Z" fill="#4FADD0"/>
</svg>
