<svg width="32" height="30" viewBox="0 0 32 30" fill="none" xmlns="http://www.w3.org/2000/svg">
<path fill-rule="evenodd" clip-rule="evenodd" d="M5.47657 2.08008L0.0236882 13.5699C0.0017156 13.6121 -0.00377756 13.6597 0.00354666 13.7073C0.012702 13.7549 0.0365056 13.797 0.0712958 13.83L14.8003 27.9858C14.8424 28.0261 14.8973 28.0481 14.9559 28.0481C15.0127 28.0481 15.0695 28.0261 15.1116 27.9858L29.8406 13.83C29.8754 13.797 29.8973 13.7549 29.9065 13.7091C29.9157 13.6615 29.9083 13.6139 29.8882 13.5699L24.4335 2.08008C24.417 2.04163 24.3877 2.00867 24.3529 1.98669C24.3163 1.96289 24.276 1.9519 24.2339 1.9519H5.67982C5.6377 1.9519 5.59559 1.96289 5.55897 1.98486C5.52235 2.00867 5.49488 2.04163 5.47657 2.08008Z" fill="#50AF95"/>
<path fill-rule="evenodd" clip-rule="evenodd" d="M16.8477 14.7491C16.7415 14.7583 16.1958 14.7894 14.9763 14.7894C14.0077 14.7894 13.3192 14.7601 13.0775 14.7491C9.33118 14.5844 6.53516 13.9307 6.53516 13.147C6.53516 12.3633 9.33118 11.7114 13.0775 11.543V14.0973C13.3229 14.1156 14.0242 14.1577 14.9946 14.1577C16.1573 14.1577 16.7396 14.1083 16.844 14.0991V11.5448C20.583 11.7114 23.3717 12.3651 23.3717 13.147C23.3717 13.9288 20.583 14.5825 16.844 14.7491H16.8477ZM16.8477 11.2811V8.99414H22.0643V5.50781H7.86084V8.99414H13.0775V11.2793C8.83679 11.4752 5.64893 12.3175 5.64893 13.3264C5.64893 14.3353 8.83679 15.1776 13.0775 15.3735V22.6996H16.8477V15.3717C21.0774 15.1758 24.2598 14.3335 24.2598 13.3264C24.2598 12.3175 21.0792 11.4752 16.8477 11.2793V11.2811Z" fill="white"/>
<path d="M25.4717 15L30.0164 22.5348L25.4882 20.5939L25.4717 15Z" fill="#E68F7B"/>
<path d="M20.938 22.5348L25.4717 15L25.4882 20.5939L20.938 22.5348Z" fill="#F8EC7C"/>
<path d="M25.4717 25.3125L20.938 22.5348L25.4882 20.592L25.4717 25.3125Z" fill="#6EB87D"/>
<path d="M30.0164 22.5348L25.4882 20.592L25.4717 25.3125L30.0164 22.5348Z" fill="#946BA7"/>
<path d="M25.4717 26.2683L30.0164 23.5657L25.4717 29.9908V26.2683Z" fill="#697CB9"/>
<path d="M25.4717 26.2683L20.938 23.5657L25.4717 29.9908V26.2683Z" fill="#4FADD0"/>
</svg>
