<svg width="30" height="30" viewBox="0 0 30 30" fill="none" xmlns="http://www.w3.org/2000/svg">
<path fill-rule="evenodd" clip-rule="evenodd" d="M5.49305 2.08008L0.0236882 13.5699C0.0017156 13.6121 -0.00377756 13.6597 0.00354666 13.7073C0.012702 13.7549 0.0365056 13.797 0.0712958 13.83L14.8442 27.9858C14.8864 28.0261 14.9413 28.0481 14.9999 28.0481C15.0585 28.0481 15.1134 28.0261 15.1555 27.9858L29.9285 13.83C29.9633 13.797 29.9871 13.7549 29.9962 13.7091C30.0035 13.6615 29.9981 13.6139 29.9761 13.5699L24.5067 2.08008C24.4884 2.04163 24.4609 2.00867 24.4243 1.98669C24.3895 1.96289 24.3474 1.9519 24.3053 1.9519H5.6963C5.65418 1.9519 5.61207 1.96289 5.57545 1.98486C5.53883 2.00867 5.51136 2.04163 5.49305 2.08008Z" fill="#50AF95"/>
<path fill-rule="evenodd" clip-rule="evenodd" d="M16.8987 14.7491C16.7925 14.7583 16.2432 14.7894 15.0219 14.7894C14.0496 14.7894 13.3593 14.7601 13.1176 14.7491C9.36023 14.5844 6.55505 13.9307 6.55505 13.147C6.55505 12.3633 9.36023 11.7114 13.1176 11.543V14.0973C13.3629 14.1156 14.066 14.1577 15.0383 14.1577C16.2047 14.1577 16.7888 14.1083 16.895 14.0991V11.5448C20.6432 11.7114 23.441 12.3651 23.441 13.147C23.441 13.9288 20.645 14.5825 16.895 14.7491H16.8987ZM16.8987 11.2811V8.99414H22.13V5.50781H7.8844V8.99414H13.1157V11.2793C8.86401 11.4752 5.66699 12.3175 5.66699 13.3264C5.66699 14.3353 8.86401 15.1776 13.1157 15.3735V22.6996H16.8969V15.3717C21.1394 15.1758 24.3309 14.3335 24.3309 13.3264C24.3309 12.3175 21.1412 11.4752 16.8969 11.2793L16.8987 11.2811Z" fill="white"/>
<path d="M30 22.5C30 26.6418 26.6418 30 22.5 30C18.3582 30 15 26.6418 15 22.5C15 18.3582 18.3582 15 22.5 15C26.6418 15 30 18.3582 30 22.5Z" fill="#131419"/>
<path fill-rule="evenodd" clip-rule="evenodd" d="M20.1143 21.5222L22.5001 19.1364L24.886 21.5222L26.2721 20.1361L22.5001 16.3641L18.7281 20.1361L20.1143 21.5222ZM17.7485 21.1176L16.3643 22.5018L17.7485 23.8879L19.1346 22.5018L17.7485 21.1176ZM22.5001 25.8673L20.1143 23.4814L18.7281 24.8676L22.5001 28.6395L26.2721 24.8676L24.886 23.4814L22.5001 25.8673ZM27.2517 21.1176L25.8656 22.5018L27.2517 23.8879L28.636 22.5018L27.2517 21.1176ZM22.5001 21.0956L23.9064 22.5018L22.5001 23.9081L21.0939 22.5018L21.3374 22.2491L21.4637 22.1338L22.5001 21.0956Z" fill="#F0B90B"/>
</svg>
