<svg width="30" height="30" viewBox="0 0 30 30" fill="none" xmlns="http://www.w3.org/2000/svg">
<path fill-rule="evenodd" clip-rule="evenodd" d="M5.49305 2.08008L0.0236882 13.5699C0.0017156 13.6121 -0.00377756 13.6597 0.00354666 13.7073C0.012702 13.7549 0.0365056 13.797 0.0712958 13.83L14.8442 27.9858C14.8864 28.0261 14.9413 28.0481 14.9999 28.0481C15.0585 28.0481 15.1134 28.0261 15.1555 27.9858L29.9285 13.83C29.9633 13.797 29.9871 13.7549 29.9962 13.7091C30.0035 13.6615 29.9981 13.6139 29.9761 13.5699L24.5067 2.08008C24.4884 2.04163 24.4609 2.00867 24.4243 1.98669C24.3895 1.96289 24.3474 1.9519 24.3053 1.9519H5.6963C5.65418 1.9519 5.61207 1.96289 5.57545 1.98486C5.53883 2.00867 5.51136 2.04163 5.49305 2.08008Z" fill="#50AF95"/>
<path fill-rule="evenodd" clip-rule="evenodd" d="M16.8987 14.7491C16.7925 14.7583 16.2432 14.7894 15.0219 14.7894C14.0496 14.7894 13.3593 14.7601 13.1176 14.7491C9.36023 14.5844 6.55505 13.9307 6.55505 13.147C6.55505 12.3633 9.36023 11.7114 13.1176 11.543V14.0973C13.3629 14.1156 14.066 14.1577 15.0383 14.1577C16.2047 14.1577 16.7888 14.1083 16.895 14.0991V11.5448C20.6432 11.7114 23.441 12.3651 23.441 13.147C23.441 13.9288 20.645 14.5825 16.895 14.7491H16.8987ZM16.8987 11.2811V8.99414H22.13V5.50781H7.8844V8.99414H13.1157V11.2793C8.86401 11.4752 5.66699 12.3175 5.66699 13.3264C5.66699 14.3353 8.86401 15.1776 13.1157 15.3735V22.6996H16.8969V15.3717C21.1394 15.1758 24.3309 14.3335 24.3309 13.3264C24.3309 12.3175 21.1412 11.4752 16.8969 11.2793L16.8987 11.2811Z" fill="white"/>
<path d="M30 22.5C30 26.6418 26.6418 30 22.5 30C18.3582 30 15 26.6418 15 22.5C15 18.3582 18.3582 15 22.5 15C26.6418 15 30 18.3582 30 22.5Z" fill="#EB322A"/>
<path fill-rule="evenodd" clip-rule="evenodd" d="M18.0652 18.111C18.1311 18.0286 18.2373 17.9864 18.3435 18.0029L25.871 19.1986C25.9351 19.2096 25.9955 19.2407 26.0394 19.2865L27.8595 21.1963C27.8943 21.2311 27.9199 21.275 27.9346 21.3263C27.9382 21.3428 27.9419 21.3611 27.9437 21.3776C27.9474 21.4215 27.9401 21.4654 27.9272 21.5039C27.9144 21.535 27.8998 21.5643 27.8778 21.59L22.4103 28.3136C22.3444 28.3942 22.2382 28.4344 22.1356 28.418C22.0312 28.4033 21.9434 28.3319 21.9049 28.2349L18.0212 18.4058C17.981 18.3069 17.9993 18.1933 18.0652 18.111ZM27.0355 21.1908L25.838 19.9347L23.9209 21.6302L27.0355 21.1908ZM25.2155 19.6948L19.314 18.7573L22.9944 21.6595L25.2155 19.6948ZM23.2489 22.3224L26.9421 21.8024L22.6337 27.0996L23.2489 22.3224ZM22.0496 26.9897L18.9972 19.2627L22.6721 22.1594L22.0496 26.9897Z" fill="white"/>
</svg>
